<svg width="8" height="12" viewBox="0 0 8 12" fill="none" xmlns="http://www.w3.org/2000/svg">
<path d="M7.33355 5.53176L1.9934 0.191706C1.86989 0.068097 1.70501 0 1.5292 0C1.3534 0 1.18852 0.068097 1.06501 0.191706L0.671749 0.584873C0.415848 0.841066 0.415848 1.25745 0.671749 1.51326L5.156 5.99751L0.666773 10.4867C0.543262 10.6104 0.475067 10.7751 0.475067 10.9508C0.475067 11.1267 0.543262 11.2915 0.666773 11.4152L1.06004 11.8083C1.18365 11.9319 1.34843 12 1.52423 12C1.70003 12 1.86491 11.9319 1.98842 11.8083L7.33355 6.46336C7.45735 6.33936 7.52535 6.1738 7.52496 5.99781C7.52535 5.82112 7.45735 5.65566 7.33355 5.53176Z" fill="white"/>
</svg>
