<svg width="45" height="45" viewBox="0 0 45 45" fill="none" xmlns="http://www.w3.org/2000/svg">
<circle opacity="0.2" r="22.5" transform="matrix(-1 0 0 1 22.5 22.5)" fill="white"/>
<path d="M18.6664 22.5318L24.0066 17.1917C24.1301 17.0681 24.295 17 24.4708 17C24.6466 17 24.8114 17.0681 24.935 17.1917L25.3282 17.5849C25.5841 17.8411 25.5841 18.2575 25.3282 18.5133L20.844 22.9975L25.3332 27.4867C25.4567 27.6104 25.5249 27.7751 25.5249 27.9508C25.5249 28.1267 25.4567 28.2915 25.3332 28.4152L24.9399 28.8083C24.8163 28.9319 24.6515 29 24.4757 29C24.2999 29 24.1351 28.9319 24.0115 28.8083L18.6664 23.4634C18.5426 23.3394 18.4746 23.1738 18.475 22.9978C18.4746 22.8211 18.5426 22.6557 18.6664 22.5318Z" fill="white"/>
</svg>
