<svg width="12" height="12" viewBox="0 0 12 12" fill="none" xmlns="http://www.w3.org/2000/svg">
<path d="M9.33355 5.53176L3.9934 0.191706C3.86989 0.068097 3.70501 0 3.5292 0C3.3534 0 3.18852 0.068097 3.06501 0.191706L2.67175 0.584873C2.41585 0.841066 2.41585 1.25745 2.67175 1.51326L7.15601 5.99751L2.66677 10.4867C2.54326 10.6104 2.47507 10.7751 2.47507 10.9508C2.47507 11.1267 2.54326 11.2915 2.66677 11.4152L3.06004 11.8083C3.18365 11.9319 3.34843 12 3.52423 12C3.70003 12 3.86491 11.9319 3.98842 11.8083L9.33355 6.46336C9.45735 6.33936 9.52535 6.1738 9.52496 5.9978C9.52535 5.82112 9.45735 5.65566 9.33355 5.53176Z" fill="white"/>
</svg>
