<svg width="19" height="15" viewBox="0 0 19 15" fill="none" xmlns="http://www.w3.org/2000/svg">
<path d="M17.2372 6.62454V2.3934C17.2372 1.46058 16.4782 0.70166 15.5454 0.70166H3.45459C2.52177 0.70166 1.76284 1.46058 1.76284 2.3934V6.62454C0.74768 6.90557 0 7.83701 0 8.94035V12.1552C0 12.4667 0.252566 12.7193 0.564062 12.7193H1.76284V13.734C1.76284 14.0455 2.01541 14.2981 2.32691 14.2981C2.6384 14.2981 2.89097 14.0455 2.89097 13.734V12.7193H16.109V13.734C16.109 14.0455 16.3616 14.2981 16.6731 14.2981C16.9846 14.2981 17.2372 14.0455 17.2372 13.734V12.7193H18.4359C18.7474 12.7193 19 12.4667 19 12.1552V8.94035C19 7.83701 18.2523 6.90557 17.2372 6.62454ZM2.89097 2.3934C2.89097 2.08265 3.14383 1.82979 3.45459 1.82979H15.5455C15.8562 1.82979 16.1091 2.08265 16.1091 2.3934V6.53726H14.7874V5.40501C14.7874 4.42046 13.9864 3.6195 13.0019 3.6195H10.7215C10.2493 3.6195 9.81966 3.80404 9.50004 4.10444C9.18041 3.80408 8.75076 3.6195 8.27858 3.6195H5.99817C5.01362 3.6195 4.21266 4.4205 4.21266 5.40501V6.53726H2.89097V2.3934ZM13.6593 5.40501V6.53726H10.0641V5.40501C10.0641 5.04249 10.359 4.74762 10.7215 4.74762H13.0019C13.3644 4.74762 13.6593 5.04253 13.6593 5.40501ZM8.9359 5.40501V6.53726H5.34067V5.40501C5.34067 5.04249 5.63562 4.74762 5.99806 4.74762H8.27847C8.64099 4.74762 8.9359 5.04253 8.9359 5.40501ZM17.8719 11.5912H1.12812V8.94035C1.12812 8.23735 1.70005 7.66538 2.40309 7.66538H16.5969C17.2999 7.66538 17.8719 8.23731 17.8719 8.94035V11.5912Z" fill="#696969"/>
</svg>
