<svg width="16" height="18" viewBox="0 0 16 18" fill="none" xmlns="http://www.w3.org/2000/svg">
<path d="M8.00001 0C4.02381 0 0.78894 3.2349 0.78894 7.21107V7.41041C0.78894 9.42135 1.94185 11.7647 4.21576 14.3753C5.86417 16.2679 7.48955 17.5875 7.55789 17.6427L8.00001 18L8.44214 17.6428C8.51052 17.5875 10.1359 16.2679 11.7843 14.3754C14.0581 11.7647 15.2111 9.42138 15.2111 7.41045V7.21111C15.2111 3.2349 11.9762 0 8.00001 0ZM13.8041 7.41045C13.8041 10.8088 9.42532 14.9226 8.00001 16.1715C6.57432 14.9222 2.19596 10.8086 2.19596 7.41045V7.21111C2.19596 4.01077 4.79967 1.40706 8.00001 1.40706C11.2004 1.40706 13.8041 4.01077 13.8041 7.21111V7.41045Z" fill="white"/>
</svg>
