<svg width="38" height="50" viewBox="0 0 38 50" fill="none" xmlns="http://www.w3.org/2000/svg">
<path d="M25.7871 50H12.2129C5.75117 50 0.494141 44.743 0.494141 38.2812V11.7188C0.494141 5.25703 5.75117 0 12.2129 0H25.7871C32.2488 0 37.5059 5.25703 37.5059 11.7188V38.2812C37.5059 44.743 32.2488 50 25.7871 50ZM12.2129 3.90625C7.90508 3.90625 4.40039 7.41094 4.40039 11.7188V38.2812C4.40039 42.5891 7.90508 46.0938 12.2129 46.0938H25.7871C30.0949 46.0938 33.5996 42.5891 33.5996 38.2812V11.7188C33.5996 7.41094 30.0949 3.90625 25.7871 3.90625H12.2129ZM29.6934 14.7461C29.6934 13.6674 28.8189 12.793 27.7402 12.793H10.2598C7.66836 12.8961 7.67031 16.597 10.2598 16.6992H27.7402C28.8189 16.6992 29.6934 15.8248 29.6934 14.7461ZM29.4004 40.2344V30.957C29.2973 28.3656 25.5964 28.3676 25.4941 30.957V40.2344C25.4941 41.3131 26.3686 42.1875 27.4473 42.1875C28.526 42.1875 29.4004 41.3131 29.4004 40.2344ZM10.6504 29.0039C9.30205 29.0039 8.20898 30.097 8.20898 31.4453C8.3376 34.6838 12.9637 34.6829 13.0918 31.4453C13.0918 30.097 11.9987 29.0039 10.6504 29.0039ZM19.0488 29.0039C17.7005 29.0039 16.6074 30.097 16.6074 31.4453C16.736 34.6838 21.3621 34.6829 21.4902 31.4453C21.4902 30.097 20.3972 29.0039 19.0488 29.0039ZM10.6504 37.3047C9.30205 37.3047 8.20898 38.3978 8.20898 39.7461C8.3376 42.9846 12.9637 42.9837 13.0918 39.7461C13.0918 38.3978 11.9987 37.3047 10.6504 37.3047ZM19.0488 37.3047C17.7005 37.3047 16.6074 38.3978 16.6074 39.7461C16.736 42.9846 21.3621 42.9837 21.4902 39.7461C21.4902 38.3978 20.3972 37.3047 19.0488 37.3047ZM12.9941 23.0469C12.9941 24.3952 11.9011 25.4883 10.5527 25.4883C7.31426 25.3597 7.31514 20.7336 10.5527 20.6055C11.9011 20.6055 12.9941 21.6985 12.9941 23.0469ZM19.0488 20.6055C17.7005 20.6055 16.6074 21.6985 16.6074 23.0469C16.736 26.2854 21.3621 26.2845 21.4902 23.0469C21.4902 21.6985 20.3972 20.6055 19.0488 20.6055ZM27.4473 20.6055C26.0989 20.6055 25.0059 21.6985 25.0059 23.0469C25.1345 26.2854 29.7605 26.2845 29.8887 23.0469C29.8887 21.6985 28.7956 20.6055 27.4473 20.6055Z" fill="#0061DF"/>
</svg>
