<svg width="19" height="15" viewBox="0 0 19 15" fill="none" xmlns="http://www.w3.org/2000/svg">
<path d="M18.2733 5.61208L17.8592 5.17362L16.4058 1.25588C16.1581 0.594133 15.5248 0.155671 14.8184 0.151611H4.43739C3.73098 0.151611 3.09765 0.594133 2.85 1.25588L1.41688 5.1249L0.820086 5.67704C0.300427 6.11956 0 6.76913 0 7.45118V13.1593C0.00405983 14.0931 0.763248 14.8482 1.69701 14.8482H2.7688C3.70256 14.8482 4.46175 14.0931 4.46581 13.1593V12.3311H14.5342V13.1593C14.5382 14.0931 15.2974 14.8482 16.2312 14.8482H17.303C18.2368 14.8482 18.9959 14.0931 19 13.1593V7.30097C18.9959 6.66358 18.7361 6.0546 18.2733 5.61208ZM3.61325 1.53195C3.74316 1.18687 4.07201 0.963577 4.43739 0.963577H14.8224C15.1878 0.963577 15.5167 1.19093 15.6466 1.53195L16.9132 4.94221H15.9673C15.744 3.41977 14.3271 2.36828 12.8047 2.59563C11.5908 2.77426 10.6368 3.72832 10.4581 4.94221H2.34658L3.61325 1.53195ZM15.1391 4.94221H11.2782C11.5015 3.87447 12.5489 3.19242 13.6167 3.41571C14.3799 3.57811 14.9767 4.1749 15.1391 4.94221ZM3.65385 13.1593C3.64979 13.6465 3.25598 14.0362 2.7688 14.0362H1.69701C1.20983 14.0362 0.816026 13.6465 0.811966 13.1593V12.0956C1.05556 12.254 1.37628 12.3311 1.69701 12.3311H3.65385V13.1593ZM18.188 13.1593C18.184 13.6465 17.7902 14.0362 17.303 14.0362H16.2312C15.744 14.0362 15.3502 13.6424 15.3462 13.1593V12.3311H17.303C17.6237 12.3311 17.9444 12.254 18.188 12.0956V13.1593ZM17.303 11.5191H1.69701C1.21389 11.5232 0.816026 11.1375 0.811966 10.6503V7.45118C0.811966 7.0046 1.0109 6.57832 1.35192 6.29007C1.35598 6.28601 1.3641 6.27789 1.36816 6.27383L1.9203 5.75418H17.2949L17.6846 6.17234C17.6887 6.18046 17.7009 6.18452 17.7049 6.19264C18.0094 6.48088 18.184 6.88281 18.184 7.30097V10.6503H18.188C18.184 11.1334 17.7861 11.5232 17.303 11.5191Z" fill="#696969"/>
</svg>
