<svg width="45" height="45" viewBox="0 0 45 45" fill="none" xmlns="http://www.w3.org/2000/svg">
<circle opacity="0.2" cx="22.5" cy="22.5" r="22.5" fill="white"/>
<path d="M26.3335 22.5318L20.9934 17.1917C20.8699 17.0681 20.705 17 20.5292 17C20.3534 17 20.1885 17.0681 20.065 17.1917L19.6717 17.5849C19.4158 17.8411 19.4158 18.2575 19.6717 18.5133L24.156 22.9975L19.6668 27.4867C19.5433 27.6104 19.4751 27.7751 19.4751 27.9508C19.4751 28.1267 19.5433 28.2915 19.6668 28.4152L20.06 28.8083C20.1836 28.9319 20.3484 29 20.5242 29C20.7 29 20.8649 28.9319 20.9884 28.8083L26.3335 23.4634C26.4574 23.3394 26.5254 23.1738 26.525 22.9978C26.5254 22.8211 26.4574 22.6557 26.3335 22.5318Z" fill="white"/>
</svg>
