<svg width="46" height="50" viewBox="0 0 46 50" fill="none" xmlns="http://www.w3.org/2000/svg">
<path d="M41.2378 50C40.209 50 39.2014 49.6231 38.3903 48.897L33.5221 44.613C32.7126 43.9007 32.6338 42.667 33.3462 41.8575C34.0585 41.048 35.2923 40.9693 36.1016 41.6815L40.9772 45.9719C40.9827 45.9767 40.9881 45.9816 40.9935 45.9864C41.0402 46.0283 41.1819 46.156 41.4135 46.0529C41.6452 45.9497 41.6452 45.7589 41.6452 45.6962V11.7142C41.6452 7.40807 38.1419 3.90474 33.8357 3.90474H12.1644C7.85827 3.90474 4.35493 7.40807 4.35493 11.7142V33.3855C4.35493 37.6917 7.85827 41.195 12.1644 41.195H27.1977C29.7881 41.2981 29.7861 44.9975 27.1977 45.0997H12.1644C5.70519 45.0997 0.450195 39.8447 0.450195 33.3855V11.7142C0.450195 5.255 5.70519 0 12.1644 0H33.8357C40.2949 0 45.5499 5.255 45.5499 11.7142V45.6963C45.5499 47.4166 44.5737 48.92 43.0021 49.62C42.4293 49.875 41.83 50 41.2378 50ZM32.2481 25.7837C31.3383 25.2045 30.1317 25.4729 29.5528 26.3827C26.0055 31.4779 19.8609 31.2864 16.3497 26.3827C15.7708 25.473 14.5642 25.2046 13.6545 25.7837C12.7448 26.3626 12.4766 27.5693 13.0555 28.4789C13.2007 28.7072 16.7816 34.0689 23 34.0689C29.2184 34.0689 32.7018 28.7072 32.847 28.4789C33.4259 27.5693 33.1578 26.3626 32.2481 25.7837ZM30.6142 20.6951C29.5359 20.6951 28.6618 19.821 28.6618 18.7427V13.3737C28.7649 10.7833 32.4644 10.7853 32.5666 13.3737V18.7427C32.5666 19.821 31.6925 20.6951 30.6142 20.6951ZM17.4357 18.7427V13.3737C17.3326 10.7833 13.6332 10.7853 13.531 13.3737V18.7427C13.531 19.821 14.4051 20.6951 15.4833 20.6951C16.5616 20.6951 17.4357 19.821 17.4357 18.7427Z" fill="#0061DF"/>
</svg>
